<svg width="109" height="47" viewBox="0 0 109 47" fill="none" xmlns="http://www.w3.org/2000/svg">
  <path class="logo" d="M16.8567 8.66777L21.3089 22.6959H12.2667L16.8624 8.66777H16.8567ZM12.72 0.520569L0 36.1617H7.78574L10.2529 28.835H23.3859L25.6809 36.1617H33.7592L21.1368 0.520569H12.72Z" fill="#3A222C"/>
  <path class="logo" d="M28.039 9.80377H35.7789L41.2639 29.248L46.8751 9.80377H54.2764L44.7695 36.1617H37.4944L28.039 9.80377Z" fill="#3A222C"/>
  <path class="logo" d="M90.5314 27.7735C91.4322 29.9825 93.1076 31.0841 95.5632 31.0841C98.0188 31.0841 99.6196 30.0685 100.618 28.0375C101.261 26.7006 101.588 25.0081 101.588 22.9598C101.588 21.3476 101.312 19.9075 100.767 18.6338C99.786 16.3445 98.059 15.197 95.5919 15.197C93.8477 15.197 92.4535 15.8626 91.3978 17.2051C90.3421 18.5419 89.8143 20.573 89.8143 23.2983C89.8143 25.1228 90.0552 26.6088 90.5372 27.7735M101.398 46.6096V32.8971C100.882 33.9585 99.9983 34.9109 98.7475 35.7371C97.4967 36.5691 95.7927 36.9822 93.6354 36.9822C90.5888 36.9822 87.9898 35.7658 85.8497 33.3331C83.7039 30.9004 82.631 27.653 82.631 23.5852C82.631 19.2018 83.7096 15.6962 85.8611 13.0627C88.0127 10.4349 90.6691 9.12103 93.8305 9.12103C96.0222 9.12103 97.7951 9.66035 99.1491 10.739C99.9409 11.3529 100.744 12.357 101.565 13.7626V9.84395H108.214V46.6039H101.392L101.398 46.6096Z" fill="#3A222C"/>
  <path class="logo" fill-rule="evenodd" clip-rule="evenodd" d="M66.5067 30.3914C70.5451 30.3914 73.8189 27.1176 73.8189 23.0792C73.8189 19.0407 70.5451 15.7669 66.5067 15.7669C62.4682 15.7669 59.1944 19.0407 59.1944 23.0792C59.1944 27.1176 62.4682 30.3914 66.5067 30.3914ZM66.5067 37.3555C74.3912 37.3555 80.783 30.9637 80.783 23.0792C80.783 15.1946 74.3912 8.80286 66.5067 8.80286C58.6221 8.80286 52.2304 15.1946 52.2304 23.0792C52.2304 30.9637 58.6221 37.3555 66.5067 37.3555Z" fill="#57B9B0"/>
  <path class="logo" d="M75.2117 1.8913H57.8016V6.76613H75.2117V1.8913Z" fill="#57B9B0"/>
</svg>
