<svg width="126" height="53" viewBox="0 0 126 53" fill="none" xmlns="http://www.w3.org/2000/svg">
<path d="M118.444 39.1034C115.871 41.4694 112.741 42.5289 108.908 42.2497C101.406 41.7037 95.7812 35.2542 95.7812 26.4013C95.7812 16.808 102.401 10.8421 109.74 10.8521C114.681 10.8595 117.373 12.7817 118.486 13.7365L118.549 11.7745H125.996V53.0097H118.441V39.1059L118.444 39.1034ZM111.105 35.147C115.498 35.147 118.869 31.5096 118.869 26.5284C118.869 21.5473 115.392 17.9747 111.052 17.9747C106.713 17.9747 103.24 21.5249 103.24 26.5608C103.24 31.5968 106.607 35.147 111.108 35.147H111.105Z" fill="#EDEDED"/>
<path fill-rule="evenodd" clip-rule="evenodd" d="M69.6484 1.6499H87.6488V6.8978H69.6484V1.6499ZM78.651 42.2471C87.3928 42.2471 94.4816 35.2342 94.4816 26.5857C94.4816 17.9373 87.3928 10.9243 78.651 10.9243C69.9091 10.9243 62.8203 17.9373 62.8203 26.5857C62.8203 35.2342 69.9091 42.2471 78.651 42.2471ZM69.9998 26.5857C69.9998 21.8589 73.873 18.0271 78.651 18.0271C83.4289 18.0271 87.3021 21.8589 87.3021 26.5857C87.3021 31.3126 83.4289 35.1444 78.651 35.1444C73.873 35.1444 69.9998 31.3126 69.9998 26.5857Z" fill="#6EE7D8"/>
<path d="M34.8203 11.7749H42.9624C45.4799 18.6109 47.569 25.1826 50.0336 32.6044H50.1419C52.6065 25.1851 54.6956 18.6134 57.1601 11.7749H65.088L54.5872 41.3501H45.427L34.8203 11.7749Z" fill="#EDEDED"/>
<path d="M15.8584 0.00732422H25.1798L41.0382 41.3473H32.5206L28.3424 30.5349H12.3782C10.9847 34.1398 9.64656 37.7423 8.253 41.3473H0L15.8584 0.00732422ZM25.5024 22.9036C24.2172 19.5654 22.6094 15.2723 20.4674 9.49342H20.3591C18.9655 13.2555 17.0906 18.1319 15.2158 22.9036H25.5024Z" fill="#EDEDED"/>
</svg>
