<svg width="124" height="53" viewBox="0 0 124 53" fill="none" xmlns="http://www.w3.org/2000/svg">
<path fill-rule="evenodd" clip-rule="evenodd" d="M74.9688 34.2808C79.2917 34.2808 82.8183 30.7851 82.8183 26.4999C82.8183 22.2148 79.2917 18.7191 74.9688 18.7191C70.6459 18.7191 67.1193 22.2148 67.1193 26.4999C67.1193 30.8978 70.6459 34.2808 74.9688 34.2808ZM74.9688 41.7234C83.3872 41.7234 90.2128 34.9574 90.2128 26.6127C90.2128 18.268 83.3872 11.5021 74.9688 11.5021C66.5505 11.5021 59.7248 18.268 59.7248 26.6127C59.7248 34.9574 66.5505 41.7234 74.9688 41.7234Z" fill="#950639"/>
<path d="M84.1835 4.1723H65.6404V9.35954H84.1835V4.1723Z" fill="#950639"/>
<path d="M1.82018 40.934L12.5138 0.676575H25.8239L36.5174 40.934H28.6679L26.5064 32.0255H11.8312L9.66972 40.934H1.82018ZM13.6514 25.034H24.5725L19.6807 5.41275H18.6569L13.6514 25.034Z" fill="#231F20"/>
<path d="M40.6128 40.934L31.3982 12.4042H39.1339L45.8459 35.634H46.8697L53.5816 12.4042H61.3174L52.1028 40.934H40.6128Z" fill="#231F20"/>
<path d="M114.899 52.4361V37.551H113.875C113.534 38.2276 112.965 38.7915 112.169 39.4681C111.486 40.1447 110.462 40.5957 109.325 41.0468C108.187 41.4978 106.708 41.6106 104.888 41.6106C102.613 41.6106 100.451 41.0468 98.4037 39.9191C96.4697 38.7915 94.8771 37.1 93.6257 34.9574C92.3743 32.8149 91.8055 30.1085 91.8055 27.0638V26.1617C91.8055 23.0042 92.3743 20.4106 93.6257 18.2681C94.8771 16.1255 96.4697 14.434 98.4037 13.3064C100.451 12.1787 102.499 11.6149 104.774 11.6149C107.391 11.6149 109.439 12.0659 110.804 12.8553C112.169 13.7574 113.193 14.6595 113.875 15.7872H114.899V12.4042H122.066V52.4361H114.899ZM107.163 35.4085C109.439 35.4085 111.372 34.7319 112.851 33.2659C114.33 31.8 115.127 29.7702 115.127 26.951V26.3872C115.127 23.6808 114.33 21.5383 112.851 20.0723C111.372 18.6064 109.439 17.9298 107.277 17.9298C105.002 17.9298 103.182 18.6064 101.703 20.0723C100.224 21.5383 99.4275 23.5681 99.4275 26.3872V26.951C99.4275 29.6574 100.224 31.8 101.703 33.2659C103.068 34.6191 104.888 35.4085 107.163 35.4085Z" fill="#231F20"/>
</svg>
