<?xml version="1.0" encoding="utf-8"?>
<!-- Generator: Adobe Illustrator 27.5.0, SVG Export Plug-In . SVG Version: 6.00 Build 0)  -->
<svg version="1.1" id="Layer_1" xmlns="http://www.w3.org/2000/svg" xmlns:xlink="http://www.w3.org/1999/xlink" x="0px" y="0px"
	 viewBox="0 0 1080 65.3" style="enable-background:new 0 0 1080 65.3;" xml:space="preserve">
<style type="text/css">
	.st0{fill:#2E3239;}
</style>
<g>
	<path class="st0" d="M68.3,32.7l-14.4-7.2l11.4-5.7V0L34.1,15.6L3,0v19.7l11.4,5.7L0,32.7l14.4,7.2L3,45.6v19.7l31.2-15.6
		l31.2,15.6V45.6l-11.4-5.7L68.3,32.7z M7.7,57.6v-9l12-6l9,4.5L7.7,57.6z M60.5,7.7v9l-12,6l-9-4.5L60.5,7.7z M39.5,32.7l9-4.5
		l9,4.5l-9,4.5L39.5,32.7z M34.1,30l-9-4.5l9-4.5l9,4.5L34.1,30z M28.8,18.3l-9,4.5l-12-6v-9L28.8,18.3z M19.7,28.1l9,4.5l-9,4.5
		l-9-4.5L19.7,28.1z M34.1,35.3l9,4.5l-9,4.5l-9-4.5L34.1,35.3z M39.5,47l9-4.5l12,6v9L39.5,47z"/>
	<path class="st0" d="M101.1,51.1l5.1-4.4c3.4,4.2,8.6,6.7,14.3,6.7c8.6,0,12.1-3.5,12.1-8.7c0-5.5-4.9-7.1-12.9-9.2
		c-8.6-2.2-17-4.7-17-14.6c0-9,6.9-14.9,18.3-14.9c7.3,0,13.5,2.6,17.8,8l-5.1,4.2c-2.7-3.8-6.8-6.4-12.7-6.4
		c-7.5,0-11.2,3.6-11.2,8.4c0,5.5,4.9,6.8,12.7,8.9c9,2.4,17.1,5.1,17.1,14.9c0,9.2-6.9,15.2-19,15.2
		C112.6,59.3,105.8,56.6,101.1,51.1z"/>
	<path class="st0" d="M182.8,6.8h6.6v33.9c0,11.3-7.7,18.6-20.6,18.6c-11.8,0-20.4-6.9-20.4-18.6V6.8h6.8v33.5
		c0,7.8,5.3,13.1,13.9,13.1s13.7-5,13.7-13.1V6.8z"/>
	<path class="st0" d="M228,32c5.1,1.6,9.2,5.8,9.2,12.3c0,9.1-7.9,14.1-17.4,14.1h-21V6.8h21.5c9.6,0,15.8,5.5,15.8,13.5
		c0,5.7-3.1,9.6-8,11.7V32z M205.5,12.7v16.8H220c5.2,0,9.2-2.8,9.2-8.5c0-5.6-3.9-8.4-9.1-8.4H205.5z M220.9,52.6
		c5.3,0,9.4-2.8,9.4-8.6c0-5.7-4-8.6-9.4-8.6h-15.4v17.2H220.9z"/>
	<path class="st0" d="M242.1,56.1l3-4.9c2,1.6,4.3,2.5,7,2.5c5.1,0,7.3-3.5,7.3-8.2V6.8h6.8v38.8c0,8.2-5.3,13.7-14,13.7
		C247.9,59.3,244.6,57.8,242.1,56.1z"/>
	<path class="st0" d="M280.3,58.5V6.8h33.2v5.9H287v16.8h23.2v5.9H287v17.2H314v5.9H280.3z"/>
	<path class="st0" d="M320.3,32.7C320.3,17.6,329,6,343.9,6c9,0,15.8,4.2,19.7,11.1l-5.6,3.3c-2.8-5.2-7.3-8.6-14-8.6
		c-11.3,0-16.7,9.6-16.7,20.7c0,10.9,5.3,20.8,17,20.8c6.7,0,11.4-3.4,14.1-8.4l5.5,3.1c-3.8,6.8-10.6,11.2-19.7,11.2
		C329,59.3,320.3,47.7,320.3,32.7z"/>
	<path class="st0" d="M386.8,58.5V12.7h-17.9V6.8h42.6v5.9h-17.9v45.8H386.8z"/>
	<path class="st0" d="M490.5,6.8v51.7h-6.7v-42h-0.1l-16.1,42h-6.3l-16.1-42h-0.1v42h-6.6V6.8h9.8l16.2,43h0.1l16.3-43H490.5z"/>
	<path class="st0" d="M535.7,44h-23l-5.5,14.5H500l20.3-51.7h8l20.3,51.7h-7.4L535.7,44z M533.4,38.2l-9.2-24H524l-9.2,24H533.4z"/>
	<path class="st0" d="M568.5,58.5V12.7h-17.9V6.8h42.6v5.9h-17.9v45.8H568.5z"/>
	<path class="st0" d="M618.4,58.5V12.7h-17.9V6.8h42.6v5.9h-17.9v45.8H618.4z"/>
	<path class="st0" d="M655.8,58.5V6.8H689v5.9h-26.5v16.8h23.2v5.9h-23.2v17.2h26.9v5.9H655.8z"/>
	<path class="st0" d="M724.6,36.8h-13.7v21.8H704V6.8h21.1c9.6,0,16.6,5.5,16.6,14.8c0,6.9-4.2,11.6-10.4,13.6l11.4,23.3h-7.7
		L724.6,36.8z M710.8,30.8H725c5.5,0,9.9-3,9.9-9c0-6.1-4.2-9.1-9.8-9.1h-14.2V30.8z"/>
	<path class="st0" d="M796.4,37.4H790v21.1h-13.2V6.8H790v20.7h6.4l10.7-20.7h14.3l-13.8,25.5l14.6,26.3h-14.8L796.4,37.4z"/>
	<g>
		<path class="st0" d="M839.4,58.5V6.8h13.2v51.7H839.4z"/>
		<path class="st0" d="M921.2,6.8l-17.6,51.7h-15L870.7,6.8h13.9L896,43.2h0.1l11.6-36.4H921.2z"/>
	</g>
	<g>
		<path class="st0" d="M985.8,6.8l-17.6,51.7h-15L935.4,6.8h13.9l11.5,36.4h0.1l11.6-36.4H985.8z"/>
		<path class="st0" d="M1004,58.5V6.8h13.2v51.7H1004z"/>
	</g>
	<path class="st0" d="M1050.7,58.5V17h-16.1V6.8h45.4V17h-16.1v41.6H1050.7z"/>
</g>
</svg>
