<?xml version="1.0" encoding="UTF-8"?>
<svg id="Layer_2" data-name="Layer 2" xmlns="http://www.w3.org/2000/svg" viewBox="0 0 74.98 136.2">
  <defs>
    <style>
      .cls-1 {
        fill: #2e3239;
      }
    </style>
  </defs>
  <g id="Layer_1-2">
    <g>
      <g>
        <path class="cls-1" d="m3.23,70.1v-18.62l32.87-16.43L3.23,18.62V0l70.1,35.05L3.23,70.1Zm1.53-17.67v15.2l65.15-32.58L4.76,2.47v15.2l34.76,17.38L4.76,52.43Z"/>
        <path class="cls-1" d="m72.39,70.1L2.29,35.05,72.39,0v18.62l-32.87,16.43,32.87,16.43v18.62ZM5.71,35.05l65.15,32.58v-15.2l-34.76-17.38,34.76-17.38V2.47L5.71,35.05Z"/>
      </g>
      <path class="cls-1" d="m0,93.29l1.22-1.06c.81,1.03,2.07,1.61,3.47,1.61,2.07,0,2.93-.85,2.93-2.1,0-1.33-1.17-1.73-3.11-2.21-2.07-.52-4.1-1.14-4.1-3.53,0-2.16,1.68-3.6,4.41-3.6,1.76,0,3.25.63,4.3,1.94l-1.24,1.03c-.65-.91-1.64-1.55-3.08-1.55-1.81,0-2.72.86-2.72,2.02,0,1.33,1.19,1.64,3.08,2.15,2.16.59,4.13,1.22,4.13,3.6,0,2.21-1.68,3.68-4.59,3.68-1.92,0-3.58-.63-4.7-1.97Z"/>
      <path class="cls-1" d="m19.73,82.58h1.59v8.19c0,2.73-1.87,4.49-4.98,4.49-2.85,0-4.93-1.68-4.93-4.49v-8.19h1.64v8.1c0,1.89,1.29,3.16,3.35,3.16s3.32-1.2,3.32-3.16v-8.1Z"/>
      <path class="cls-1" d="m30.65,88.68c1.24.39,2.23,1.4,2.23,2.98,0,2.2-1.9,3.42-4.22,3.42h-5.08v-12.5h5.19c2.33,0,3.81,1.32,3.81,3.25,0,1.37-.75,2.31-1.94,2.82v.03Zm-5.44-4.67v4.07h3.52c1.25,0,2.21-.68,2.21-2.05s-.94-2.02-2.2-2.02h-3.53Zm3.73,9.63c1.27,0,2.28-.68,2.28-2.08s-.96-2.07-2.28-2.07h-3.73v4.15h3.73Z"/>
      <path class="cls-1" d="m34.07,94.49l.73-1.19c.47.37,1.04.6,1.69.6,1.24,0,1.76-.85,1.76-1.97v-9.36h1.64v9.37c0,1.97-1.29,3.3-3.38,3.3-1.04,0-1.86-.34-2.44-.76Z"/>
      <path class="cls-1" d="m43.29,95.08v-12.5h8.02v1.43h-6.4v4.07h5.6v1.42h-5.6v4.15h6.51v1.43h-8.14Z"/>
      <path class="cls-1" d="m52.96,88.83c0-3.64,2.1-6.43,5.7-6.43,2.16,0,3.81,1.03,4.75,2.68l-1.35.8c-.67-1.25-1.77-2.07-3.38-2.07-2.73,0-4.04,2.33-4.04,5s1.27,5.03,4.12,5.03c1.63,0,2.75-.83,3.4-2.03l1.32.75c-.93,1.64-2.57,2.7-4.77,2.7-3.65,0-5.74-2.78-5.74-6.43Z"/>
      <path class="cls-1" d="m69.01,95.08v-11.07h-4.33v-1.43h10.3v1.43h-4.33v11.07h-1.64Z"/>
      <path class="cls-1" d="m13.78,100.19v12.5h-1.63v-10.14h-.03l-3.89,10.14h-1.51l-3.89-10.14h-.03v10.14h-1.59v-12.5h2.36l3.92,10.38h.03l3.94-10.38h2.33Z"/>
      <path class="cls-1" d="m24.68,109.19h-5.57l-1.33,3.5h-1.72l4.91-12.5h1.94l4.91,12.5h-1.79l-1.35-3.5Zm-.55-1.42l-2.23-5.81h-.03l-2.21,5.81h4.48Z"/>
      <path class="cls-1" d="m32.6,112.69v-11.07h-4.33v-1.43h10.3v1.43h-4.33v11.07h-1.64Z"/>
      <path class="cls-1" d="m44.67,112.69v-11.07h-4.33v-1.43h10.3v1.43h-4.33v11.07h-1.64Z"/>
      <path class="cls-1" d="m53.71,112.69v-12.5h8.02v1.43h-6.4v4.07h5.6v1.42h-5.6v4.15h6.51v1.43h-8.14Z"/>
      <path class="cls-1" d="m70.31,107.43h-3.32v5.26h-1.64v-12.5h5.09c2.31,0,4.02,1.32,4.02,3.58,0,1.68-1.01,2.8-2.51,3.29l2.75,5.63h-1.86l-2.54-5.26Zm-3.32-1.43h3.42c1.33,0,2.39-.72,2.39-2.18s-1.03-2.2-2.38-2.2h-3.43v4.38Z"/>
      <path class="cls-1" d="m5.92,131.11h-1.53v5.09H1.2v-12.5h3.19v5h1.55l2.59-5h3.45l-3.34,6.15,3.52,6.35h-3.58l-2.65-5.09Z"/>
      <g>
        <path class="cls-1" d="m16.31,136.2v-12.5h3.19v12.5h-3.19Z"/>
        <path class="cls-1" d="m36.07,123.7l-4.26,12.5h-3.61l-4.31-12.5h3.35l2.77,8.8h.03l2.8-8.8h3.24Z"/>
      </g>
      <g>
        <path class="cls-1" d="m51.69,123.7l-4.26,12.5h-3.61l-4.31-12.5h3.35l2.77,8.8h.03l2.8-8.8h3.24Z"/>
        <path class="cls-1" d="m56.07,136.2v-12.5h3.19v12.5h-3.19Z"/>
      </g>
      <path class="cls-1" d="m67.36,136.2v-10.04h-3.89v-2.46h10.97v2.46h-3.89v10.04h-3.19Z"/>
      <path class="cls-1" d="m.66,117.87h74.32v1.14H.66v-1.14Z"/>
    </g>
  </g>
</svg>
